<svg width="312" height="232" viewBox="0 0 312 232" fill="none" xmlns="http://www.w3.org/2000/svg">
<rect width="312" height="204" rx="8" fill="#F5F5FB"/>
<mask id="mask0" mask-type="alpha" maskUnits="userSpaceOnUse" x="0" y="0" width="312" height="204">
<rect width="312" height="204" rx="8" fill="#F5F5FB"/>
</mask>
<g mask="url(#mask0)">
<circle cx="298.5" cy="26.5" r="44.5" stroke="#5E81F4" stroke-width="28"/>
<circle cx="13.5" cy="222.5" r="63.5" stroke="#5E81F4" stroke-width="36"/>
</g>
<path d="M236.557 68.2732C228.685 68.7351 225.604 76.935 224.691 78.7828C223.778 80.6307 223.664 82.7095 223.436 84.7884C223.208 86.8672 222.98 88.9461 221.953 90.7939C220.242 93.5657 216.591 95.0671 215.564 98.1853C214.423 101.766 217.275 105.461 216.591 109.157C216.134 111.12 214.765 112.737 214.309 114.701C213.738 116.664 214.309 118.858 215.336 120.706C217.96 125.21 223.208 127.405 228.342 127.636C233.476 127.867 238.497 126.25 243.289 124.748" fill="#263238"/>
<path d="M271.013 78.5519C270.215 80.2842 271.013 82.2476 272.154 83.6335C273.409 85.0194 275.007 85.9433 276.376 87.0982C277.745 88.2531 279.114 89.7545 279.228 91.6024C279.342 93.3347 278.544 94.9516 278.772 96.684C279.342 100.957 286.188 102.343 286.53 106.616C286.758 109.503 283.792 112.16 284.705 114.932C285.047 115.971 285.846 116.779 286.416 117.819C288.356 121.053 286.987 125.557 284.248 128.098C281.396 130.638 277.517 131.562 273.866 131.678C270.671 131.793 267.134 131.331 265.309 128.675C263.597 126.365 263.94 123.131 264.282 120.244C265.879 106.732 265.651 92.9883 265.309 79.3603" fill="#263238"/>
<path d="M238.611 141.148C238.725 133.988 238.611 126.596 238.611 126.596C238.611 126.596 229.597 124.979 227.886 112.968C226.174 101.535 229.027 76.935 229.027 76.935C242.148 71.7379 256.866 73.7013 265.993 84.4419L264.624 142.187C264.51 148.886 258.577 154.083 251.503 153.852C244.315 153.621 238.611 147.962 238.611 141.148Z" fill="#FFBE9D"/>
<path d="M231.423 95.7601C231.423 96.5685 231.993 97.2615 232.906 97.3769C233.705 97.3769 234.389 96.7995 234.503 95.9911C234.503 95.1826 233.933 94.4897 233.02 94.3742C232.221 94.3742 231.537 94.9516 231.423 95.7601Z" fill="#263238"/>
<path d="M229.027 94.6051C229.255 94.8361 230.396 93.9122 231.993 94.0277C235.074 94.4897 234.96 94.9516 234.96 94.7206C235.074 94.6051 234.846 94.2587 234.389 93.9122C233.933 93.5657 233.02 93.1038 231.993 93.1038C230.966 93.1038 230.168 93.4502 229.597 93.7967C229.141 94.1432 228.913 94.4897 229.027 94.6051Z" fill="#263238"/>
<path d="M248.195 96.3375C248.195 97.1459 248.765 97.8389 249.678 97.9544C250.476 97.9544 251.161 97.3769 251.275 96.5685C251.275 95.76 250.705 95.0671 249.792 94.9516C248.879 94.8361 248.195 95.5291 248.195 96.3375Z" fill="#263238"/>
<path d="M246.027 95.1826C246.255 95.4136 247.396 94.4896 248.993 94.6051C250.591 94.6051 251.846 95.4136 251.96 95.2981C252.074 95.1826 251.846 94.8361 251.389 94.4896C250.933 94.1432 250.02 93.6812 248.993 93.6812C247.966 93.6812 247.168 94.0277 246.597 94.3742C246.141 94.7206 245.913 95.0671 246.027 95.1826Z" fill="#263238"/>
<path d="M239.98 107.078C239.98 106.963 238.953 106.847 237.356 106.616C236.899 106.616 236.557 106.501 236.443 106.154C236.329 105.808 236.557 105.346 236.785 104.884C237.242 103.844 237.584 102.805 238.04 101.65C239.752 97.1459 241.121 93.3347 240.893 93.3347C240.664 93.2192 239.181 96.9149 237.356 101.419C236.899 102.574 236.557 103.613 236.101 104.653C235.987 105.115 235.644 105.692 235.872 106.27C235.987 106.616 236.329 106.847 236.557 106.847C236.785 106.963 237.013 106.963 237.242 106.963C238.953 107.078 239.98 107.078 239.98 107.078Z" fill="#263238"/>
<path d="M238.611 126.481C238.611 126.481 246.597 127.058 254.47 122.438C254.47 122.438 250.591 130.638 238.725 129.368L238.611 126.481Z" fill="#EB996E"/>
<path d="M240.664 111.005C241.235 110.196 242.262 109.85 243.289 109.965C243.973 110.081 244.658 110.427 245.114 111.005C245.57 111.582 245.57 112.391 245.228 112.968C244.772 113.546 243.859 113.777 243.06 113.546C242.262 113.315 241.577 112.737 241.007 112.275C240.778 112.16 240.664 111.929 240.55 111.813C240.436 111.467 240.436 111.236 240.664 111.005Z" fill="#EB996E"/>
<path d="M244.772 108.233C244.544 108.233 244.429 109.965 242.946 111.236C241.463 112.506 239.523 112.275 239.523 112.506C239.523 112.622 239.98 112.853 240.778 112.853C241.577 112.853 242.718 112.622 243.631 111.929C244.544 111.12 245 110.081 245 109.388C245.114 108.695 244.886 108.233 244.772 108.233Z" fill="#263238"/>
<path d="M260.859 75.8956C256.523 82.1321 245.114 88.5996 236.899 89.9855C237.812 88.7151 242.832 85.5968 243.859 84.3264C240.094 87.0982 234.846 90.9094 229.94 91.1404C229.369 91.1404 228.685 91.1404 228.228 90.9094C227.544 90.5629 227.429 89.7545 227.315 89.0616C226.973 86.1743 227.201 81.0927 227.658 78.2054C228.114 75.3181 229.483 72.4309 231.879 70.4675C235.074 68.0422 239.523 67.3493 243.859 67.2338C247.396 67.1183 251.161 67.3493 254.356 68.6197C257.664 69.8901 260.403 72.5463 260.859 75.5491" fill="#263238"/>
<path d="M273.295 103.844C273.866 100.726 274.322 97.8389 274.436 95.8755C274.778 89.7545 273.067 67.0028 252.074 68.7351L251.161 75.2026C251.161 75.2026 247.966 97.3769 261.544 97.4924C261.544 97.4924 262.342 104.075 268.503 110.543C268.389 110.543 271.926 110.427 273.295 103.844Z" fill="#263238"/>
<path d="M261.544 97.4924C262.799 97.2614 264.168 97.2614 265.309 97.8389C266.45 98.3008 267.591 99.2248 268.047 100.38C268.503 101.535 268.503 102.92 268.047 104.191C267.591 105.461 266.792 106.501 265.879 107.425C265.195 108.118 264.51 108.695 263.597 108.926C262.684 109.157 261.658 109.041 260.973 108.464" fill="#FFBE9D"/>
<path d="M262.114 105.346C262 105.346 262.456 106.154 263.711 105.923C264.282 105.808 264.852 105.346 265.195 104.653C265.537 104.075 265.765 103.382 265.879 102.574C265.993 101.766 265.765 100.957 265.423 100.264C264.966 99.6867 264.396 99.2248 263.825 99.2248C262.684 99.2248 262.228 100.033 262.342 100.033C262.456 100.149 262.913 99.6867 263.711 99.9177C264.51 100.033 265.195 101.073 264.966 102.459C264.852 103.729 264.282 104.999 263.597 105.23C262.684 105.577 262.228 105.23 262.114 105.346Z" fill="#EB996E"/>
<path d="M263.825 73.5857C265.423 74.5097 267.362 74.7407 269.188 74.2787C271.013 73.8167 272.611 72.5463 273.523 70.9295C274.094 69.89 274.436 68.6196 274.208 67.4647C273.752 65.8479 272.268 64.8084 270.671 64.3465C268.389 63.769 265.765 64.3465 264.054 65.9633C262.342 67.5802 261.544 70.2365 262.342 72.5463C263.141 74.8561 265.423 76.473 267.819 76.3575" fill="#263238"/>
<path d="M265.765 108.002C264.624 108.811 263.369 109.734 262.456 110.889C261.544 112.044 260.859 113.43 261.087 114.932C261.201 115.74 261.429 116.548 261.315 117.357C261.201 118.512 260.289 119.32 259.604 120.244C258.121 122.669 258.691 126.134 260.631 128.213C262.57 130.292 265.537 131.331 268.389 131.447C270.101 131.447 271.812 131.216 273.181 130.292C275.121 128.906 275.919 126.25 275.919 123.824" fill="#263238"/>
<path d="M267.134 78.3209C267.248 78.3209 266.792 79.2448 265.879 80.5152C264.966 81.7856 263.597 83.4025 261.886 85.0194C260.06 86.5207 258.235 87.6756 256.866 88.3686C255.497 89.0615 254.584 89.2925 254.584 89.2925C254.47 89.0615 258.007 87.6756 261.544 84.5574C264.966 81.4391 267.02 78.2054 267.134 78.3209Z" fill="#455A64"/>
<path d="M269.302 78.2054C269.416 78.2054 269.302 79.3603 268.96 81.0927C268.503 82.825 267.705 85.2504 266.336 87.6757C264.852 90.101 263.255 91.9488 261.886 93.1037C260.517 94.2586 259.604 94.8361 259.49 94.8361C259.376 94.7206 263.027 92.0643 265.879 87.3292C268.617 82.7095 269.074 78.0899 269.302 78.2054Z" fill="#455A64"/>
<path d="M223.664 87.7911C223.893 87.7911 224.121 89.7545 224.691 92.1798C225.376 94.4896 226.174 96.3375 226.06 96.453C225.946 96.5685 224.805 94.8361 224.121 92.4108C223.55 89.87 223.55 87.7911 223.664 87.7911Z" fill="#455A64"/>
<path d="M274.094 128.675C274.094 128.559 274.664 129.252 275.805 129.252C276.376 129.252 277.174 129.137 277.859 128.559C278.544 128.098 279.114 127.289 279.342 126.25C279.57 125.21 279.57 124.055 279.342 122.785C279.114 121.515 278.658 120.244 278.201 118.858C277.745 117.472 277.403 115.855 277.745 114.239C277.973 112.506 279.114 111.12 279.57 109.619C280.141 108.118 279.913 106.385 279.228 105.115C278.544 103.613 277.403 102.689 276.033 102.112C275.349 101.881 274.664 101.535 274.094 101.188C273.523 100.842 272.839 100.38 272.497 99.8022C271.812 98.5318 271.812 97.2614 271.812 96.222C271.812 95.0671 271.926 94.1432 271.698 93.3347C271.47 92.5263 271.242 91.8333 270.785 91.3714C269.987 90.4475 269.188 90.4474 269.302 90.4474C269.302 90.4474 269.53 90.4474 269.758 90.4474C270.101 90.5629 270.557 90.7939 271.013 91.2559C271.47 91.7179 271.812 92.4108 272.04 93.3347C272.268 94.2587 272.268 95.2981 272.268 96.3375C272.268 97.3769 272.268 98.6473 272.953 99.6867C273.638 100.726 274.893 101.188 276.262 101.766C277.631 102.228 279 103.382 279.684 104.884C280.369 106.385 280.711 108.233 280.027 109.85C279.456 111.467 278.429 112.853 278.201 114.354C277.973 115.855 278.315 117.357 278.658 118.743C279.114 120.129 279.57 121.515 279.799 122.785C280.027 124.055 280.027 125.326 279.684 126.481C279.342 127.636 278.772 128.444 277.973 129.021C277.174 129.483 276.376 129.714 275.805 129.599C275.121 129.599 274.664 129.368 274.436 129.137C274.094 128.79 274.094 128.675 274.094 128.675Z" fill="#455A64"/>
<path d="M265.765 127.867C265.765 127.867 265.879 128.213 266.45 128.444C266.906 128.675 268.047 128.675 268.617 127.867C269.188 126.943 269.188 125.557 268.389 124.286C267.705 123.016 266.45 121.745 266.107 119.782C265.879 118.858 266.107 117.819 266.792 117.126C267.362 116.433 268.047 115.971 268.389 115.393C269.302 114.239 269.302 112.853 269.188 111.698C269.074 110.543 268.732 109.734 268.503 109.041C268.275 108.464 268.161 108.118 268.275 108.118C268.275 108.118 268.503 108.464 268.732 109.041C268.96 109.619 269.416 110.543 269.53 111.698C269.758 112.853 269.758 114.47 268.732 115.74C268.275 116.433 267.591 116.895 267.134 117.472C266.678 118.05 266.45 118.858 266.678 119.667C266.906 121.284 268.161 122.554 268.846 124.055C269.53 125.441 269.644 127.174 268.846 128.213C268.503 128.79 267.819 129.021 267.362 129.021C266.906 129.021 266.45 129.021 266.107 128.79C265.765 128.328 265.765 127.867 265.765 127.867Z" fill="#455A64"/>
<path d="M221.04 124.864C221.04 124.864 220.698 124.517 220.127 123.94C219.557 123.247 218.758 122.323 218.188 120.937C217.846 120.244 217.732 119.32 217.732 118.396C217.732 117.472 218.074 116.433 218.758 115.624C219.443 114.816 220.47 114.354 221.154 113.546C221.839 112.737 221.839 111.698 221.611 110.543C221.383 109.503 220.812 108.464 220.356 107.54C219.899 106.616 219.443 105.577 219.215 104.537C218.987 103.498 219.215 102.343 219.785 101.65C220.356 100.842 220.926 100.38 221.497 99.8022C222.638 98.8783 223.322 97.8388 223.436 97.0304C223.55 96.222 223.322 95.76 223.436 95.76C223.436 95.76 223.55 95.8755 223.664 96.1065C223.778 96.3375 223.778 96.6839 223.778 97.1459C223.664 98.0698 222.98 99.2247 221.839 100.264C221.268 100.842 220.698 101.304 220.242 102.112C219.785 102.805 219.557 103.729 219.785 104.653C219.899 105.577 220.356 106.501 220.926 107.54C221.383 108.464 221.953 109.503 222.295 110.774C222.523 111.929 222.523 113.315 221.725 114.239C220.926 115.163 219.899 115.509 219.329 116.317C218.758 117.01 218.416 117.934 218.416 118.743C218.416 119.551 218.53 120.36 218.758 121.053C219.329 122.438 220.013 123.362 220.584 124.055C220.812 124.402 221.154 124.864 221.04 124.864Z" fill="#455A64"/>
<path d="M268.617 75.0871C268.503 75.2026 267.705 73.3548 265.879 72.0844C264.054 70.6985 262.228 70.352 262.228 70.2365C262.228 70.121 264.282 70.121 266.221 71.6224C268.161 73.0083 268.846 75.0871 268.617 75.0871Z" fill="#E8505B"/>
<path d="M270.329 64C270.443 64 270.785 64.462 271.127 65.2704C271.47 66.1943 271.584 67.4647 271.242 68.9661C270.899 70.352 269.987 71.5069 269.302 72.0844C268.617 72.6618 268.047 72.8928 268.047 72.7773C268.047 72.6618 268.503 72.4308 269.074 71.7379C269.644 71.045 270.329 70.121 270.785 68.8506C271.127 67.5802 271.013 66.3098 270.899 65.5014C270.443 64.5775 270.215 64 270.329 64Z" fill="#455A64"/>
<path d="M185.5 204L201.074 167.325L220.698 179.798L207 204C207 204 202.5 204 185.5 204Z" fill="#EB996E"/>
<path d="M217.732 141.379C226.859 136.528 238.611 135.142 238.611 135.142C242.034 142.072 252.872 142.996 259.376 138.261L264.852 134.449C264.852 134.449 265.651 134.449 267.134 134.565C280.027 135.72 290.638 145.421 293.262 158.356C294.174 162.976 294.973 168.404 294.631 173.37C293.946 185.958 281.054 187.113 281.054 187.113C281.054 187.113 280.799 192.952 280 203C273 203 275.121 202.382 268.275 205.5C263.255 207.81 267.812 203 251 203C226.5 203 236.5 203 220 203C221.94 190.989 214.879 187.806 214.651 187.113C214.651 186.998 214.651 186.882 214.651 186.882L201.872 175.333L194.57 169.212C194.685 169.212 210.544 145.306 217.732 141.379Z" fill="#5E81F4"/>
<path d="M233.591 149.117C233.591 149.232 232.45 148.193 230.396 148.193C229.369 148.193 228.114 148.539 227.087 149.348C226.631 149.81 226.174 150.387 225.604 150.965C225.148 151.542 224.463 152.235 223.55 152.351C222.638 152.582 221.725 152.12 221.154 151.658C220.47 151.196 219.899 150.734 219.329 150.387C218.188 149.694 216.933 149.81 216.02 150.041C215.107 150.387 214.423 150.965 214.081 151.427C213.738 151.889 213.624 152.235 213.51 152.12C213.51 152.12 213.51 151.773 213.852 151.196C214.195 150.734 214.765 150.041 215.792 149.579C216.819 149.117 218.302 149.001 219.557 149.81C220.242 150.156 220.812 150.618 221.383 150.965C221.953 151.311 222.638 151.658 223.322 151.542C224.007 151.427 224.577 150.849 225.034 150.387C225.49 149.81 225.946 149.232 226.631 148.77C227.772 147.846 229.141 147.615 230.282 147.615C231.423 147.615 232.221 147.962 232.678 148.308C233.362 148.886 233.591 149.117 233.591 149.117Z" fill="#FAFAFA" fill-opacity="0.8"/>
<path d="M246.597 166.325C246.483 166.441 245.799 165.17 243.859 164.477C242.946 164.131 241.691 164.015 240.436 164.477C239.866 164.708 239.181 165.17 238.611 165.517C237.926 165.863 237.128 166.325 236.215 166.21C235.302 166.094 234.617 165.401 234.161 164.824C233.705 164.246 233.248 163.553 232.792 163.091C231.993 162.052 230.738 161.705 229.711 161.705C228.685 161.705 227.886 162.052 227.43 162.398C226.973 162.745 226.745 162.976 226.631 162.976C226.631 162.976 226.745 162.629 227.201 162.283C227.658 161.936 228.456 161.474 229.597 161.359C230.624 161.243 232.107 161.59 233.134 162.745C233.591 163.322 234.047 163.9 234.503 164.477C234.96 165.055 235.53 165.517 236.215 165.632C236.899 165.748 237.584 165.401 238.268 165.055C238.953 164.708 239.523 164.246 240.208 164.015C241.577 163.553 242.946 163.669 243.973 164.131C245 164.477 245.685 165.17 246.027 165.632C246.483 165.979 246.597 166.325 246.597 166.325Z" fill="#FAFAFA" fill-opacity="0.8"/>
<path d="M275.463 141.148C275.463 141.263 274.208 140.571 272.154 140.917C271.128 141.148 269.987 141.725 269.188 142.765C268.732 143.227 268.503 143.92 268.047 144.613C267.705 145.306 267.134 145.999 266.336 146.461C265.423 146.807 264.51 146.576 263.826 146.345C263.141 146.114 262.456 145.768 261.772 145.537C260.517 145.075 259.262 145.421 258.463 145.999C257.55 146.576 257.094 147.269 256.866 147.731C256.638 148.193 256.523 148.539 256.523 148.539C256.523 148.539 256.524 148.193 256.638 147.615C256.866 147.038 257.322 146.23 258.235 145.652C259.148 145.075 260.517 144.613 262 145.075C262.685 145.306 263.369 145.652 264.054 145.883C264.738 146.114 265.423 146.23 266.107 145.999C266.792 145.768 267.248 145.075 267.591 144.497C267.933 143.804 268.275 143.111 268.732 142.534C269.644 141.379 271.013 140.802 272.04 140.686C273.067 140.455 273.98 140.686 274.55 140.802C275.235 140.917 275.463 141.032 275.463 141.148Z" fill="#FAFAFA" fill-opacity="0.8"/>
<path d="M262.114 160.088C262 160.204 261.544 159.165 260.06 158.587C259.376 158.356 258.349 158.241 257.436 158.472C256.98 158.587 256.523 158.934 255.953 159.165C255.383 159.396 254.812 159.742 254.013 159.627C253.329 159.511 252.758 158.934 252.416 158.472C252.074 158.01 251.732 157.432 251.503 157.086C250.933 156.277 250.02 155.931 249.221 155.931C247.624 155.931 246.94 156.739 246.826 156.739C246.826 156.739 246.94 156.508 247.282 156.162C247.624 155.931 248.309 155.584 249.221 155.584C250.02 155.584 251.161 155.931 251.96 156.855C252.302 157.317 252.644 157.779 252.987 158.241C253.329 158.703 253.671 159.049 254.242 159.165C255.268 159.396 256.295 158.356 257.322 158.125C258.463 157.779 259.49 158.01 260.289 158.356C261.772 158.934 262.228 160.088 262.114 160.088Z" fill="#FAFAFA" fill-opacity="0.8"/>
<path d="M232.678 176.026C232.564 176.142 232.107 175.102 230.624 174.525C229.94 174.294 228.913 174.178 228 174.409C227.544 174.525 227.087 174.871 226.517 175.102C225.946 175.333 225.376 175.68 224.577 175.564C223.893 175.449 223.322 174.871 222.98 174.409C222.638 173.947 222.295 173.37 222.067 173.023C221.497 172.215 220.584 171.869 219.785 171.869C218.188 171.869 217.503 172.677 217.389 172.677C217.389 172.677 217.503 172.446 217.846 172.1C218.188 171.869 218.873 171.522 219.785 171.522C220.584 171.522 221.725 171.869 222.524 172.792C222.866 173.254 223.208 173.716 223.55 174.178C223.893 174.64 224.235 174.987 224.805 175.102C225.832 175.333 226.859 174.294 227.886 174.063C229.027 173.716 230.054 173.947 230.852 174.294C232.45 174.871 232.792 176.026 232.678 176.026Z" fill="#FAFAFA" fill-opacity="0.8"/>
<path d="M260.174 176.373C260.174 176.488 259.376 175.68 257.779 175.68C256.98 175.68 256.067 175.795 255.268 176.488C254.926 176.835 254.47 177.181 254.128 177.643C253.671 178.105 253.215 178.567 252.416 178.683C251.617 178.798 251.047 178.452 250.477 178.105C250.02 177.759 249.564 177.412 249.107 177.066C248.309 176.488 247.282 176.488 246.597 176.719C245.114 177.181 244.658 178.336 244.658 178.221C244.658 178.221 244.658 177.99 244.886 177.528C245.114 177.181 245.685 176.604 246.483 176.257C247.282 175.911 248.423 175.911 249.45 176.488C249.906 176.835 250.362 177.181 250.819 177.528C251.275 177.874 251.732 178.105 252.302 177.99C253.329 177.874 254.013 176.604 254.926 175.911C255.839 175.218 256.98 175.102 257.779 175.102C259.49 175.449 260.289 176.373 260.174 176.373Z" fill="#FAFAFA" fill-opacity="0.8"/>
<path d="M251.161 189.077C251.161 189.192 250.362 188.384 248.765 188.384C247.966 188.384 247.054 188.499 246.255 189.192C245.913 189.539 245.456 189.885 245.114 190.347C244.658 190.809 244.201 191.271 243.403 191.387C242.604 191.502 242.034 191.156 241.463 190.809C241.007 190.463 240.55 190.116 240.094 189.77C239.295 189.192 238.268 189.192 237.584 189.423C236.101 189.885 235.644 191.04 235.644 190.925C235.644 190.925 235.644 190.694 235.872 190.232C236.101 189.885 236.671 189.308 237.47 188.961C238.268 188.615 239.409 188.615 240.436 189.192C240.893 189.539 241.349 189.885 241.805 190.232C242.262 190.578 242.718 190.809 243.289 190.694C244.315 190.578 245 189.308 245.913 188.615C246.825 187.922 247.966 187.806 248.765 187.806C250.477 188.037 251.161 189.077 251.161 189.077Z" fill="#FAFAFA" fill-opacity="0.8"/>
<path d="M180.537 131.793C181.221 132.602 206.322 166.556 206.322 166.556L202.785 168.635L177 135.027L180.537 131.793Z" fill="#263238"/>
<path d="M278.429 155.931C278.429 155.931 254.926 197.046 253.329 197.739C250.248 199.24 214.081 167.595 210.658 164.593C210.201 163.9 209.174 162.629 207.235 159.857C207.235 159.857 204.383 146.692 201.302 147.731C198.221 148.77 203.013 154.429 200.96 159.396C199.02 164.362 189.893 152.466 189.55 151.427L187.268 148.308C187.268 148.308 184.872 155.353 184.987 158.241C185.557 167.711 194.342 178.798 194.342 178.798C194.342 178.798 230.054 224.186 257.208 225.687C264.966 226.149 279.913 203.398 289.154 186.651C294.745 176.488 292.121 166.209 282.879 159.396L278.429 155.931Z" fill="#FFBE9D"/>
<path d="M189.436 160.089C189.322 160.089 188.409 158.703 187.383 156.739C186.47 154.776 185.899 153.159 186.013 153.159C186.128 153.159 186.812 154.776 187.725 156.624C188.638 158.472 189.55 159.973 189.436 160.089Z" fill="#EB996E"/>
<path d="M278.289 144.497C277.376 145.075 255.47 186.189 255.47 186.189L283.651 208.479C283.651 208.479 290.953 190.232 294.832 175.333C295.859 171.291 295.289 160.55 293.805 156.393C286.5 141 288.557 152.004 283.765 148.539L278.289 144.497Z" fill="#5E81F4"/>
<path d="M278.5 204H285.5L286.5 207L283.5 209.5L278 205.5L278.5 204Z" fill="white"/>
<g opacity="0.7">
<path opacity="0.7" d="M285.732 144.035C286.302 144.382 286.53 144.497 286.53 144.497L286.074 144.382C285.96 144.382 285.732 144.151 285.503 144.035C285.392 143.95 285.253 143.866 285.09 143.786C285.331 143.871 285.544 143.959 285.732 144.035Z" fill="black"/>
</g>
<path d="M278.087 183.071C277.973 183.187 277.517 182.147 276.034 181.57C275.349 181.339 274.322 181.223 273.409 181.454C272.953 181.57 272.497 181.916 271.926 182.147C271.356 182.378 270.785 182.725 269.987 182.609C269.302 182.494 268.732 181.916 268.389 181.454C268.047 180.992 267.705 180.415 267.477 180.068C266.906 179.26 265.993 178.914 265.195 178.914C263.597 178.914 262.913 179.722 262.799 179.722C262.799 179.722 262.913 179.491 263.255 179.145C263.597 178.914 264.282 178.567 265.195 178.567C265.993 178.567 267.134 178.914 267.933 179.837C268.275 180.299 268.617 180.761 268.96 181.223C269.302 181.685 269.644 182.032 270.215 182.147C271.242 182.378 272.268 181.339 273.295 181.108C274.436 180.761 275.463 180.992 276.262 181.339C277.859 181.916 278.201 183.071 278.087 183.071Z" fill="#FAFAFA" fill-opacity="0.8"/>
<path d="M290.98 177.759C290.866 177.759 290.638 176.719 289.383 175.795C288.812 175.333 287.899 174.987 286.873 174.987C286.416 174.987 285.846 175.218 285.275 175.333C284.705 175.449 284.02 175.564 283.336 175.218C282.651 174.871 282.309 174.178 282.081 173.601C281.852 173.023 281.738 172.446 281.51 171.984C281.168 171.06 280.369 170.483 279.57 170.252C278.087 169.79 277.06 170.483 277.06 170.367C277.06 170.367 277.175 170.136 277.631 170.021C278.087 169.79 278.772 169.674 279.57 169.905C280.369 170.136 281.396 170.714 281.852 171.869C282.081 172.446 282.195 172.908 282.423 173.485C282.651 174.063 282.879 174.525 283.336 174.756C284.248 175.218 285.503 174.525 286.644 174.525C287.785 174.525 288.812 174.987 289.383 175.564C290.98 176.604 291.094 177.759 290.98 177.759Z" fill="#FAFAFA" fill-opacity="0.8"/>
<path d="M291.664 160.781C291.55 160.781 291.322 159.742 290.067 158.818C289.497 158.356 288.584 158.01 287.557 158.01C287.101 158.01 286.53 158.241 285.96 158.356C285.389 158.472 284.705 158.587 284.02 158.241C283.336 157.894 282.993 157.201 282.765 156.624C282.537 156.046 282.423 155.469 282.195 155.007C281.852 154.083 281.054 153.506 280.255 153.275C278.772 152.813 277.745 153.506 277.745 153.39C277.745 153.39 277.859 153.159 278.315 153.044C278.772 152.813 279.456 152.697 280.255 152.928C281.054 153.159 282.081 153.736 282.537 154.891C282.765 155.469 282.879 155.931 283.107 156.508C283.336 157.086 283.564 157.548 284.02 157.779C284.933 158.241 286.188 157.548 287.329 157.548C288.47 157.548 289.497 158.01 290.067 158.587C291.664 159.627 291.779 160.781 291.664 160.781Z" fill="#FAFAFA" fill-opacity="0.8"/>
<path d="M285.389 199.817C285.275 199.817 285.047 198.778 283.792 197.854C283.221 197.392 282.309 197.046 281.282 197.046C280.825 197.046 280.255 197.277 279.685 197.392C279.114 197.508 278.43 197.623 277.745 197.277C277.06 196.93 276.718 196.237 276.49 195.66C276.262 195.082 276.148 194.505 275.919 194.043C275.577 193.119 274.779 192.541 273.98 192.311C272.497 191.849 271.47 192.541 271.47 192.426C271.47 192.426 271.584 192.195 272.04 192.08C272.497 191.849 273.181 191.733 273.98 191.964C274.779 192.195 275.805 192.772 276.262 193.927C276.49 194.505 276.604 194.967 276.832 195.544C277.06 196.122 277.289 196.584 277.745 196.815C278.658 197.277 279.913 196.584 281.054 196.584C282.195 196.584 283.221 197.046 283.792 197.623C285.503 198.663 285.503 199.933 285.389 199.817Z" fill="#FAFAFA" fill-opacity="0.8"/>
<path d="M31.7273 40H27.2912V26.9091H31.8168C33.1165 26.9091 34.233 27.1712 35.1662 27.6953C36.1037 28.2152 36.8239 28.9631 37.3267 29.9389C37.8295 30.9148 38.081 32.0824 38.081 33.4418C38.081 34.8054 37.8274 35.9773 37.3203 36.9574C36.8175 37.9375 36.0909 38.6896 35.1406 39.2138C34.1946 39.7379 33.0568 40 31.7273 40ZM29.6626 37.9482H31.6122C34.3565 37.9482 35.7287 36.446 35.7287 33.4418C35.7287 30.4545 34.38 28.9609 31.6825 28.9609H29.6626V37.9482ZM44.5146 40.1918C43.5558 40.1918 42.7248 39.9808 42.0217 39.5589C41.3185 39.1371 40.7731 38.5469 40.3853 37.7884C40.0018 37.0256 39.81 36.1392 39.81 35.1293C39.81 34.1151 40.0018 33.2287 40.3853 32.4702C40.7731 31.7074 41.3185 31.1151 42.0217 30.6932C42.7248 30.267 43.5558 30.054 44.5146 30.054C45.4734 30.054 46.3043 30.267 47.0075 30.6932C47.7148 31.1151 48.2603 31.7074 48.6438 32.4702C49.0273 33.2287 49.2191 34.1151 49.2191 35.1293C49.2191 36.1392 49.0273 37.0256 48.6438 37.7884C48.2603 38.5469 47.7148 39.1371 47.0075 39.5589C46.3043 39.9808 45.4734 40.1918 44.5146 40.1918ZM44.5273 38.3381C45.0515 38.3381 45.4862 38.1953 45.8313 37.9098C46.1808 37.6243 46.4407 37.2386 46.6112 36.7528C46.7859 36.2628 46.8732 35.7195 46.8732 35.1229C46.8732 34.522 46.7859 33.9787 46.6112 33.4929C46.4407 33.0028 46.1808 32.6129 45.8313 32.3232C45.4862 32.0334 45.0515 31.8885 44.5273 31.8885C43.9989 31.8885 43.5579 32.0334 43.2042 32.3232C42.8548 32.6129 42.5927 33.0028 42.418 33.4929C42.2433 33.9787 42.1559 34.522 42.1559 35.1229C42.1559 35.7195 42.2433 36.2628 42.418 36.7528C42.5927 37.2386 42.8548 37.6243 43.2042 37.9098C43.5579 38.1953 43.9989 38.3381 44.5273 38.3381ZM52.9457 40L50.1715 30.1818H52.5302L54.256 37.0852H54.3455L56.1097 30.1818H58.4428L60.207 37.0469H60.3029L62.0032 30.1818H64.3683L61.5877 40H59.1779L57.337 33.3651H57.2028L55.3619 40H52.9457ZM68.2978 34.2472V40H65.9838V30.1818H68.1955V31.8501H68.3105C68.5364 31.3047 68.8965 30.87 69.3908 30.5462C69.8894 30.218 70.5051 30.054 71.2381 30.054C72.2523 30.054 73.0662 30.3757 73.6799 31.0192C74.2978 31.6626 74.6046 32.5724 74.6003 33.7486V40H72.2864V34.1065C72.2864 33.4503 72.1159 32.9368 71.775 32.5661C71.4384 32.1953 70.9718 32.0099 70.3752 32.0099C69.7658 32.0099 69.2672 32.206 68.8794 32.598C68.4917 32.9858 68.2978 33.5355 68.2978 34.2472ZM79.2665 26.9091V40H76.9526V26.9091H79.2665ZM85.9286 40.1918C84.9698 40.1918 84.1388 39.9808 83.4357 39.5589C82.7326 39.1371 82.1871 38.5469 81.7994 37.7884C81.4158 37.0256 81.2241 36.1392 81.2241 35.1293C81.2241 34.1151 81.4158 33.2287 81.7994 32.4702C82.1871 31.7074 82.7326 31.1151 83.4357 30.6932C84.1388 30.267 84.9698 30.054 85.9286 30.054C86.8874 30.054 87.7184 30.267 88.4215 30.6932C89.1289 31.1151 89.6744 31.7074 90.0579 32.4702C90.4414 33.2287 90.6332 34.1151 90.6332 35.1293C90.6332 36.1392 90.4414 37.0256 90.0579 37.7884C89.6744 38.5469 89.1289 39.1371 88.4215 39.5589C87.7184 39.9808 86.8874 40.1918 85.9286 40.1918ZM85.9414 38.3381C86.4656 38.3381 86.9002 38.1953 87.2454 37.9098C87.5948 37.6243 87.8548 37.2386 88.0252 36.7528C88.1999 36.2628 88.2873 35.7195 88.2873 35.1229C88.2873 34.522 88.1999 33.9787 88.0252 33.4929C87.8548 33.0028 87.5948 32.6129 87.2454 32.3232C86.9002 32.0334 86.4656 31.8885 85.9414 31.8885C85.413 31.8885 84.9719 32.0334 84.6183 32.3232C84.2688 32.6129 84.0067 33.0028 83.832 33.4929C83.6573 33.9787 83.57 34.522 83.57 35.1229C83.57 35.7195 83.6573 36.2628 83.832 36.7528C84.0067 37.2386 84.2688 37.6243 84.6183 37.9098C84.9719 38.1953 85.413 38.3381 85.9414 38.3381ZM95.4224 40.1982C94.4849 40.1982 93.7029 39.9467 93.0765 39.4439C92.4501 38.9411 92.1369 38.2081 92.1369 37.245C92.1369 36.5078 92.3137 35.9368 92.6674 35.532C93.0254 35.1229 93.4877 34.8267 94.0545 34.6435C94.6255 34.456 95.2285 34.3281 95.8635 34.2599C96.7285 34.1662 97.3485 34.0788 97.7235 33.9979C98.1028 33.9169 98.2924 33.7102 98.2924 33.3778V33.3395C98.2924 32.858 98.1497 32.4851 97.8642 32.2209C97.5787 31.9567 97.1674 31.8246 96.6305 31.8246C96.0637 31.8246 95.6142 31.9482 95.2818 32.1953C94.9537 32.4425 94.7321 32.7344 94.617 33.071L92.4565 32.7642C92.7122 31.8693 93.2108 31.1939 93.9522 30.7379C94.698 30.282 95.5865 30.054 96.6177 30.054C97.0865 30.054 97.5552 30.1094 98.024 30.2202C98.4927 30.331 98.921 30.5142 99.3088 30.7699C99.7008 31.0256 100.014 31.3707 100.248 31.8054C100.487 32.2401 100.606 32.7812 100.606 33.429V40H98.3819V38.6513H98.3052C98.0964 39.0646 97.7555 39.4268 97.2825 39.7379C96.8137 40.0447 96.1937 40.1982 95.4224 40.1982ZM96.0233 38.4979C96.7221 38.4979 97.2761 38.2976 97.6852 37.897C98.0943 37.4964 98.2988 37.0234 98.2988 36.478V35.321C98.2008 35.402 98.0197 35.4744 97.7555 35.5384C97.4956 35.598 97.2186 35.6491 96.9245 35.6918C96.6305 35.7344 96.3812 35.7706 96.1767 35.8004C95.661 35.8729 95.2306 36.0156 94.8855 36.2287C94.5403 36.4375 94.3677 36.7635 94.3677 37.2067C94.3677 37.6328 94.5233 37.9545 94.8343 38.1719C95.1454 38.3892 95.5417 38.4979 96.0233 38.4979ZM106.577 40.1726C105.805 40.1726 105.115 39.9744 104.506 39.5781C103.896 39.1818 103.415 38.6065 103.061 37.8523C102.707 37.098 102.53 36.1818 102.53 35.1037C102.53 34.0128 102.709 33.0923 103.067 32.3423C103.43 31.5923 103.917 31.0234 104.531 30.6357C105.145 30.2479 105.829 30.054 106.583 30.054C107.162 30.054 107.635 30.152 108.002 30.348C108.373 30.5398 108.667 30.772 108.884 31.0447C109.106 31.3132 109.274 31.5668 109.389 31.8054H109.485V26.9091H111.805V40H109.53V38.4531H109.389C109.27 38.6918 109.097 38.9453 108.871 39.2138C108.645 39.478 108.347 39.7038 107.976 39.8913C107.606 40.0788 107.139 40.1726 106.577 40.1726ZM107.222 38.2741C107.959 38.2741 108.528 37.9822 108.929 37.3984C109.329 36.8104 109.53 36.0412 109.53 35.0909C109.53 34.1364 109.331 33.3757 108.935 32.8089C108.539 32.2379 107.968 31.9524 107.222 31.9524C106.451 31.9524 105.869 32.2464 105.477 32.8345C105.085 33.4226 104.889 34.1747 104.889 35.0909C104.889 36.0114 105.087 36.772 105.483 37.3729C105.88 37.9737 106.459 38.2741 107.222 38.2741ZM130.536 33.4545C130.536 34.8651 130.271 36.0732 129.743 37.0788C129.219 38.0803 128.503 38.8473 127.595 39.38C126.692 39.9126 125.667 40.179 124.521 40.179C123.374 40.179 122.347 39.9126 121.44 39.38C120.532 38.843 119.816 38.0739 119.292 37.0724C118.768 36.0668 118.506 34.8608 118.506 33.4545C118.506 32.044 118.768 30.8381 119.292 29.8366C119.816 28.831 120.532 28.0618 121.44 27.5291C122.347 26.9964 123.374 26.7301 124.521 26.7301C125.667 26.7301 126.692 26.9964 127.595 27.5291C128.503 28.0618 129.219 28.831 129.743 29.8366C130.271 30.8381 130.536 32.044 130.536 33.4545ZM128.151 33.4545C128.151 31.9631 127.813 30.8253 127.135 30.0412C126.462 29.2528 125.59 28.8587 124.521 28.8587C123.455 28.8587 122.584 29.2528 121.906 30.0412C121.229 30.8253 120.89 31.9631 120.89 33.4545C120.89 34.9418 121.229 36.0795 121.906 36.8679C122.584 37.6562 123.455 38.0504 124.521 38.0504C125.59 38.0504 126.462 37.6562 127.135 36.8679C127.813 36.0795 128.151 34.9418 128.151 33.4545ZM134.989 34.2472V40H132.675V26.9091H134.938V31.8501H135.053C135.279 31.2919 135.633 30.853 136.114 30.5334C136.6 30.2138 137.22 30.054 137.974 30.054C138.993 30.054 139.811 30.3736 140.429 31.0128C141.047 31.652 141.356 32.5639 141.356 33.7486V40H139.042V34.1065C139.042 33.446 138.871 32.9325 138.53 32.5661C138.194 32.1953 137.721 32.0099 137.111 32.0099C136.493 32.0099 135.984 32.206 135.584 32.598C135.187 32.9858 134.989 33.5355 134.989 34.2472ZM146.54 40.1982C145.602 40.1982 144.82 39.9467 144.194 39.4439C143.567 38.9411 143.254 38.2081 143.254 37.245C143.254 36.5078 143.431 35.9368 143.785 35.532C144.143 35.1229 144.605 34.8267 145.172 34.6435C145.743 34.456 146.346 34.3281 146.981 34.2599C147.846 34.1662 148.466 34.0788 148.841 33.9979C149.22 33.9169 149.41 33.7102 149.41 33.3778V33.3395C149.41 32.858 149.267 32.4851 148.981 32.2209C148.696 31.9567 148.285 31.8246 147.748 31.8246C147.181 31.8246 146.731 31.9482 146.399 32.1953C146.071 32.4425 145.849 32.7344 145.734 33.071L143.574 32.7642C143.829 31.8693 144.328 31.1939 145.069 30.7379C145.815 30.282 146.704 30.054 147.735 30.054C148.204 30.054 148.672 30.1094 149.141 30.2202C149.61 30.331 150.038 30.5142 150.426 30.7699C150.818 31.0256 151.131 31.3707 151.366 31.8054C151.604 32.2401 151.724 32.7812 151.724 33.429V40H149.499V38.6513H149.422C149.214 39.0646 148.873 39.4268 148.4 39.7379C147.931 40.0447 147.311 40.1982 146.54 40.1982ZM147.14 38.4979C147.839 38.4979 148.393 38.2976 148.802 37.897C149.211 37.4964 149.416 37.0234 149.416 36.478V35.321C149.318 35.402 149.137 35.4744 148.873 35.5384C148.613 35.598 148.336 35.6491 148.042 35.6918C147.748 35.7344 147.498 35.7706 147.294 35.8004C146.778 35.8729 146.348 36.0156 146.003 36.2287C145.657 36.4375 145.485 36.7635 145.485 37.2067C145.485 37.6328 145.64 37.9545 145.952 38.1719C146.263 38.3892 146.659 38.4979 147.14 38.4979ZM154.05 40V30.1818H156.294V31.8182H156.396C156.575 31.2472 156.882 30.8082 157.317 30.5014C157.751 30.1946 158.252 30.0412 158.819 30.0412C159.083 30.0412 159.326 30.0732 159.547 30.1371C159.769 30.201 159.965 30.2884 160.135 30.3991L159.42 32.3168C159.296 32.2571 159.16 32.2081 159.01 32.1697C158.861 32.1314 158.693 32.1122 158.506 32.1122C157.9 32.1122 157.391 32.3104 156.978 32.7067C156.569 33.0987 156.364 33.6058 156.364 34.228V40H154.05ZM164.135 40.1982C163.198 40.1982 162.416 39.9467 161.789 39.4439C161.163 38.9411 160.85 38.2081 160.85 37.245C160.85 36.5078 161.027 35.9368 161.38 35.532C161.738 35.1229 162.201 34.8267 162.767 34.6435C163.338 34.456 163.941 34.3281 164.576 34.2599C165.441 34.1662 166.061 34.0788 166.436 33.9979C166.816 33.9169 167.005 33.7102 167.005 33.3778V33.3395C167.005 32.858 166.863 32.4851 166.577 32.2209C166.292 31.9567 165.88 31.8246 165.343 31.8246C164.777 31.8246 164.327 31.9482 163.995 32.1953C163.667 32.4425 163.445 32.7344 163.33 33.071L161.169 32.7642C161.425 31.8693 161.924 31.1939 162.665 30.7379C163.411 30.282 164.299 30.054 165.331 30.054C165.799 30.054 166.268 30.1094 166.737 30.2202C167.206 30.331 167.634 30.5142 168.022 30.7699C168.414 31.0256 168.727 31.3707 168.961 31.8054C169.2 32.2401 169.319 32.7812 169.319 33.429V40H167.095V38.6513H167.018C166.809 39.0646 166.468 39.4268 165.995 39.7379C165.527 40.0447 164.907 40.1982 164.135 40.1982ZM164.736 38.4979C165.435 38.4979 165.989 38.2976 166.398 37.897C166.807 37.4964 167.012 37.0234 167.012 36.478V35.321C166.914 35.402 166.733 35.4744 166.468 35.5384C166.208 35.598 165.931 35.6491 165.637 35.6918C165.343 35.7344 165.094 35.7706 164.89 35.8004C164.374 35.8729 163.944 36.0156 163.598 36.2287C163.253 36.4375 163.081 36.7635 163.081 37.2067C163.081 37.6328 163.236 37.9545 163.547 38.1719C163.858 38.3892 164.255 38.4979 164.736 38.4979ZM38.049 50.9091V64H35.9396L29.7713 55.0831H29.6626V64H27.2912V50.9091H29.4134L35.5753 59.8324H35.6903V50.9091H38.049ZM44.8134 64.1918C43.8546 64.1918 43.0236 63.9808 42.3205 63.5589C41.6174 63.1371 41.0719 62.5469 40.6841 61.7884C40.3006 61.0256 40.1088 60.1392 40.1088 59.1293C40.1088 58.1151 40.3006 57.2287 40.6841 56.4702C41.0719 55.7074 41.6174 55.1151 42.3205 54.6932C43.0236 54.267 43.8546 54.054 44.8134 54.054C45.7722 54.054 46.6032 54.267 47.3063 54.6932C48.0137 55.1151 48.5591 55.7074 48.9426 56.4702C49.3262 57.2287 49.5179 58.1151 49.5179 59.1293C49.5179 60.1392 49.3262 61.0256 48.9426 61.7884C48.5591 62.5469 48.0137 63.1371 47.3063 63.5589C46.6032 63.9808 45.7722 64.1918 44.8134 64.1918ZM44.8262 62.3381C45.3503 62.3381 45.785 62.1953 46.1301 61.9098C46.4796 61.6243 46.7395 61.2386 46.91 60.7528C47.0847 60.2628 47.1721 59.7195 47.1721 59.1229C47.1721 58.522 47.0847 57.9787 46.91 57.4929C46.7395 57.0028 46.4796 56.6129 46.1301 56.3232C45.785 56.0334 45.3503 55.8885 44.8262 55.8885C44.2978 55.8885 43.8567 56.0334 43.503 56.3232C43.1536 56.6129 42.8915 57.0028 42.7168 57.4929C42.5421 57.9787 42.4547 58.522 42.4547 59.1229C42.4547 59.7195 42.5421 60.2628 42.7168 60.7528C42.8915 61.2386 43.1536 61.6243 43.503 61.9098C43.8567 62.1953 44.2978 62.3381 44.8262 62.3381ZM53.2445 64L50.4703 54.1818H52.829L54.5549 61.0852H54.6444L56.4086 54.1818H58.7417L60.5059 61.0469H60.6017L62.302 54.1818H64.6671L61.8865 64H59.4767L57.6358 57.3651H57.5016L55.6607 64H53.2445ZM69.1143 50.9091L68.9034 60.152H66.8452L66.6406 50.9091H69.1143ZM67.8743 64.1406C67.4865 64.1406 67.1541 64.0043 66.8771 63.7315C66.6001 63.4545 66.4638 63.1222 66.468 62.7344C66.4638 62.3509 66.6001 62.0227 66.8771 61.75C67.1541 61.4773 67.4865 61.3409 67.8743 61.3409C68.2536 61.3409 68.5817 61.4773 68.8587 61.75C69.1357 62.0227 69.2763 62.3509 69.2805 62.7344C69.2763 63.1222 69.1357 63.4545 68.8587 63.7315C68.5817 64.0043 68.2536 64.1406 67.8743 64.1406Z" fill="#011F3B"/>
<rect x="179" y="204" width="112" height="28" fill="white"/>
<circle cx="44" cy="105" r="20" fill="white"/>
<circle cx="100" cy="105" r="20" fill="white"/>
<g clip-path="url(#clip0)">
<path d="M38.3896 95.3117C38.1558 95.5455 38 95.9351 38 96.4026V113.623C38 114.091 38.1558 114.481 38.3896 114.714L38.4675 114.792L48.0519 105.13V105.052V104.974L38.3896 95.3117Z" fill="url(#paint0_linear)"/>
<path d="M51.3247 108.325L48.0519 105.13V105.052V104.974L51.2467 101.779L51.3247 101.857L55.1428 104.039C56.2338 104.662 56.2338 105.675 55.1428 106.299L51.3247 108.325Z" fill="url(#paint1_linear)"/>
<path d="M51.3247 108.325L48.0519 105.052L38.3896 114.714C38.7792 115.104 39.3247 115.104 40.026 114.792L51.3247 108.325Z" fill="url(#paint2_linear)"/>
<path d="M51.3247 101.701L39.948 95.2338C39.3247 94.8442 38.7013 94.9221 38.3896 95.3117L48.1298 105.052L51.3247 101.701Z" fill="url(#paint3_linear)"/>
<path opacity="0.2" d="M51.3247 108.247L39.9481 114.636C39.3247 115.026 38.7792 114.948 38.3896 114.636L38.3117 114.714L38.3896 114.792C38.7792 115.104 39.3247 115.182 39.9481 114.792L51.3247 108.247Z" fill="black"/>
<path opacity="0.12" d="M38.3896 114.636C38.1558 114.403 38 114.013 38 113.545V113.623C38 114.091 38.1558 114.481 38.3896 114.714V114.636Z" fill="black"/>
<path opacity="0.12" d="M55.1429 106.065L51.2468 108.247L51.3247 108.325L55.1429 106.143C55.6883 105.831 55.9221 105.442 55.9221 105.052C55.9221 105.364 55.6883 105.753 55.1429 106.065Z" fill="black"/>
<path opacity="0.25" d="M39.9481 95.3896L55.1429 104.039C55.6104 104.351 55.9221 104.662 55.9221 105.052C55.9221 104.662 55.6883 104.273 55.1429 103.961L39.9481 95.2338C38.8571 94.6104 38 95.1559 38 96.4026V96.4805C38 95.2338 38.8571 94.7662 39.9481 95.3896Z" fill="white"/>
</g>
<g clip-path="url(#clip1)">
<path d="M91 105.746C91 105.472 91 105.198 91 104.937C91 104.911 91.0134 104.885 91.0134 104.859C91.0268 104.65 91.0402 104.441 91.0669 104.219C91.1874 103.332 91.4551 102.484 91.9235 101.713C92.6597 100.5 93.7037 99.6644 95.0957 99.2467C95.6579 99.0771 96.2334 98.9988 96.8358 99.0379C97.2507 99.0771 97.6388 99.1684 98.0404 99.299C98.5624 99.4686 99.0844 99.6513 99.6064 99.821C99.9946 99.9515 100.383 99.9776 100.771 99.8341C101.266 99.6513 101.761 99.4947 102.27 99.3251C102.819 99.1423 103.368 99.0118 103.943 98.9727C104.465 98.9335 104.987 99.0118 105.496 99.1162C106.54 99.3381 107.45 99.808 108.173 100.578C108.32 100.735 108.44 100.891 108.574 101.048C108.427 101.152 108.28 101.231 108.146 101.322C107.53 101.753 107.008 102.275 106.66 102.94C106.125 103.971 106.031 105.055 106.299 106.151C106.674 107.691 107.691 108.709 109.15 109.362C109.15 109.375 109.15 109.388 109.15 109.401C109.136 109.427 109.123 109.453 109.11 109.479C108.949 109.871 108.802 110.262 108.628 110.641C108.199 111.58 107.611 112.429 106.955 113.225C106.62 113.643 106.245 114.047 105.804 114.374C105.362 114.687 104.88 114.896 104.331 114.948C103.903 114.974 103.488 114.896 103.086 114.778C102.712 114.661 102.35 114.517 101.976 114.387C101.467 114.217 100.932 114.113 100.383 114.139C99.8206 114.152 99.2852 114.282 98.7632 114.465C98.3482 114.608 97.9333 114.752 97.5184 114.883C97.3578 114.935 97.1838 114.948 97.0231 114.987C96.8625 114.987 96.7153 114.987 96.5547 114.987C96.5413 114.987 96.5413 114.974 96.5279 114.974C96.0728 114.922 95.6713 114.726 95.3099 114.465C94.8682 114.152 94.4934 113.76 94.1454 113.342C92.9943 111.998 92.1377 110.497 91.5889 108.814C91.3078 107.926 91.1071 107.012 91.0268 106.086C91.0268 105.981 91.0134 105.864 91 105.746Z" fill="black"/>
<path d="M104.585 94C104.585 94.2349 104.599 94.4699 104.585 94.7048C104.559 95.3313 104.371 95.9055 104.063 96.4537C103.568 97.3151 102.899 98.0199 102.016 98.5289C101.453 98.8421 100.851 98.9988 100.209 98.9857C100.128 98.9857 100.088 98.9727 100.075 98.8682C100.021 98.1504 100.169 97.4848 100.476 96.8452C101.199 95.3704 102.377 94.4699 103.983 94.0783C104.144 94.0392 104.291 94.0261 104.452 94C104.505 94 104.545 94 104.585 94Z" fill="black"/>
</g>
<defs>
<linearGradient id="paint0_linear" x1="47.2159" y1="96.2228" x2="34.1387" y2="109.3" gradientUnits="userSpaceOnUse">
<stop stop-color="#00A0FF"/>
<stop offset="0.00657445" stop-color="#00A1FF"/>
<stop offset="0.2601" stop-color="#00BEFF"/>
<stop offset="0.5122" stop-color="#00D2FF"/>
<stop offset="0.7604" stop-color="#00DFFF"/>
<stop offset="1" stop-color="#00E3FF"/>
</linearGradient>
<linearGradient id="paint1_linear" x1="56.5936" y1="105.021" x2="37.7389" y2="105.021" gradientUnits="userSpaceOnUse">
<stop stop-color="#FFE000"/>
<stop offset="0.4087" stop-color="#FFBD00"/>
<stop offset="0.7754" stop-color="#FFA500"/>
<stop offset="1" stop-color="#FF9C00"/>
</linearGradient>
<linearGradient id="paint2_linear" x1="49.5748" y1="106.81" x2="31.8411" y2="124.543" gradientUnits="userSpaceOnUse">
<stop stop-color="#FF3A44"/>
<stop offset="1" stop-color="#C31162"/>
</linearGradient>
<linearGradient id="paint3_linear" x1="35.9153" y1="89.5733" x2="43.8342" y2="97.4921" gradientUnits="userSpaceOnUse">
<stop stop-color="#32A071"/>
<stop offset="0.0685" stop-color="#2DA771"/>
<stop offset="0.4762" stop-color="#15CF74"/>
<stop offset="0.8009" stop-color="#06E775"/>
<stop offset="1" stop-color="#00F076"/>
</linearGradient>
<clipPath id="clip0">
<rect width="18" height="20.026" fill="white" transform="translate(38 95)"/>
</clipPath>
<clipPath id="clip1">
<rect width="18.1364" height="21" fill="white" transform="translate(91 94)"/>
</clipPath>
</defs>
</svg>
